<?xml version="1.0" encoding="UTF-8"?>
<svg version="1.1" xmlns="http://www.w3.org/2000/svg" width="96" height="96">
<path d="M0 0 C1.35700647 2.71401294 1.1123861 4.84846316 1.09765625 7.8828125 C1.09443359 9.04941406 1.09121094 10.21601563 1.08789062 11.41796875 C1.07532227 13.25294922 1.07532227 13.25294922 1.0625 15.125 C1.05798828 16.35605469 1.05347656 17.58710938 1.04882812 18.85546875 C1.0370133 21.90369392 1.02054028 24.95182314 1 28 C2.71098877 27.98428955 2.71098877 27.98428955 4.45654297 27.96826172 C8.67949294 27.93212283 12.90242919 27.90912188 17.12548828 27.89013672 C18.95493873 27.88006516 20.78437303 27.86640724 22.61376953 27.84912109 C25.23994934 27.82492323 27.86591675 27.81352868 30.4921875 27.8046875 C31.31306854 27.79436493 32.13394958 27.78404236 32.97970581 27.77340698 C34.98789142 27.77300816 36.99555382 27.8775046 39 28 C41 30 41 30 41.4765625 32.63671875 C40.79541156 37.44385777 38.38914856 40.11202921 35.375 43.8125 C34.79540527 44.54662109 34.21581055 45.28074219 33.61865234 46.03710938 C31.76400302 48.37344061 29.88642826 50.68927019 28 53 C27.38060547 53.75974121 26.76121094 54.51948242 26.12304688 55.30224609 C23.70414203 58.26101693 21.28091874 61.21546625 18.82958984 64.14746094 C15.72725476 67.85904238 12.80362913 71.61642288 10 75.5625 C7.45427842 78.91587437 7.45427842 78.91587437 3.625 79.625 C1 79 1 79 0 78 C-0.08758003 76.00035018 -0.10696576 73.9976389 -0.09765625 71.99609375 C-0.09443359 70.78115234 -0.09121094 69.56621094 -0.08789062 68.31445312 C-0.07532227 66.39536133 -0.07532227 66.39536133 -0.0625 64.4375 C-0.05798828 63.15423828 -0.05347656 61.87097656 -0.04882812 60.54882812 C-0.03699545 57.36583978 -0.02051068 54.18294238 0 51 C-1.13542236 51.02094727 -2.27084473 51.04189453 -3.44067383 51.06347656 C-7.65050663 51.13583946 -11.86028441 51.18178593 -16.07055664 51.21972656 C-17.8932418 51.23985059 -19.71586234 51.26715296 -21.53833008 51.30175781 C-24.15722588 51.35024268 -26.77526879 51.37296009 -29.39453125 51.390625 C-30.21025101 51.41127014 -31.02597076 51.43191528 -31.8664093 51.45318604 C-37.49151317 51.45542054 -37.49151317 51.45542054 -40.06567383 49.14990234 C-41 47 -41 47 -40.5546875 44.2109375 C-38.58791029 40.14890016 -36.04598678 37.03958533 -33.125 33.625 C-31.94535482 32.21176989 -30.76833872 30.79634175 -29.59375 29.37890625 C-28.995625 28.65719238 -28.3975 27.93547852 -27.78125 27.19189453 C-24.96232698 23.72310467 -22.28866695 20.15112231 -19.625 16.5625 C-19.1290332 15.89613525 -18.63306641 15.22977051 -18.12207031 14.54321289 C-17.1778875 13.27397051 -16.23417801 12.00437584 -15.29101562 10.734375 C-13.50204372 8.33103605 -11.69663901 5.94116912 -9.875 3.5625 C-9.35679688 2.88316406 -8.83859375 2.20382813 -8.3046875 1.50390625 C-5.65440797 -1.55105669 -3.67226414 -1.03576681 0 0 Z " fill="#63DBA9" transform="translate(48,9)"/>
</svg>
